/* XPM */
static char *_d20e27046ee41e3b623eb1580b370adpf8yTCcO5z4jk7zx[] = {
/* columns rows colors chars-per-pixel */
"64 64 174 2 ",
"   c #7685AB",
".  c #7987AB",
"X  c #7789AE",
"o  c #7D8AAD",
"O  c #7D8CB0",
"+  c #8E8F9B",
"@  c #908E97",
"#  c #908E98",
"$  c #8F909D",
"%  c #94929C",
"&  c #99969D",
"*  c #9D999E",
"=  c #A29D9F",
"-  c #A6A09F",
";  c #858FA7",
":  c #898FA3",
">  c #828EAD",
",  c #8790A6",
"<  c #8C92A3",
"1  c #8591AE",
"2  c #8B94AE",
"3  c #8F98AE",
"4  c #9395A3",
"5  c #9997A0",
"6  c #9598A6",
"7  c #9C9BA2",
"8  c #9197AD",
"9  c #9499AE",
"0  c #9B9DAC",
"q  c #818EB0",
"w  c #8592B1",
"e  c #8B95B1",
"r  c #8E98B3",
"t  c #9097B0",
"y  c #949BB1",
"u  c #999EB2",
"i  c #A19EA3",
"p  c #9FA1AE",
"a  c #96A0B6",
"s  c #9CA2B4",
"d  c #9DA4B8",
"f  c #A4A1A1",
"g  c #A5A1A0",
"h  c #A7A1A0",
"j  c #A6A1A1",
"k  c #A7A2A1",
"l  c #A6A2A1",
"z  c #A5A1A3",
"x  c #A5A2A2",
"c  c #A6A3A3",
"v  c #A3A0A5",
"b  c #A3A0A4",
"n  c #A1A0A6",
"m  c #A3A0A6",
"M  c #A2A0A7",
"N  c #A2A0A6",
"B  c #A3A2A7",
"V  c #A5A1A5",
"C  c #A7A3A5",
"Z  c #A4A0A6",
"A  c #A4A1A6",
"S  c #A5A1A6",
"D  c #A5A2A7",
"F  c #A7A4A7",
"G  c #A4A2A6",
"H  c #A9A3A1",
"J  c #AAA3A1",
"K  c #A8A3A2",
"L  c #ABA5A3",
"P  c #ABA6A3",
"I  c #ACA5A3",
"U  c #A9A5A4",
"Y  c #ABA7A6",
"T  c #ACA6A4",
"R  c #AAA7A7",
"E  c #ACA8A7",
"W  c #A1A0A8",
"Q  c #A3A1A9",
"!  c #A3A2A8",
"~  c #A3A3AB",
"^  c #A4A1A9",
"/  c #A4A2A8",
"(  c #A4A2A9",
")  c #A5A3A9",
"_  c #A5A3A8",
"`  c #A7A3A9",
"'  c #A4A2AA",
"]  c #A6A4A9",
"[  c #A7A5A9",
"{  c #A7A4A8",
"}  c #A5A4AB",
"|  c #A7A5AB",
" . c #A0A2AE",
".. c #A2A3AF",
"X. c #A4A3AD",
"o. c #A3A4AC",
"O. c #A5A4AD",
"+. c #A6A5AD",
"@. c #A7A7AD",
"#. c #A3A3AC",
"$. c #A8A5A9",
"%. c #A9A6A8",
"&. c #A8A5AA",
"*. c #A9A6AA",
"=. c #A8A7AB",
"-. c #AAA7AB",
";. c #ABA7AB",
":. c #AAA6AA",
">. c #A8A5AC",
",. c #A8A6AC",
"<. c #A8A7AD",
"1. c #A9A6AC",
"2. c #A8A6AE",
"3. c #A9A7AE",
"4. c #A8A7AE",
"5. c #A8A7AD",
"6. c #ACA8AB",
"7. c #A9A8AD",
"8. c #AAA8AC",
"9. c #ABA8AC",
"0. c #ABA8AD",
"q. c #A9A8AE",
"w. c #A9A8AF",
"e. c #A9A9AF",
"r. c #ACA8AC",
"t. c #ACA9AC",
"y. c #ADA9AC",
"u. c #ADA9AD",
"i. c #ACAAAC",
"p. c #ADAAAE",
"a. c #AEAAAE",
"s. c #AEABAE",
"d. c #AFABAE",
"f. c #AEABAF",
"g. c #ADAAAD",
"h. c #A2A6B4",
"j. c #A8A7B2",
"k. c #A5A9B6",
"l. c #A9A9B0",
"z. c #ADABB0",
"x. c #AFABB0",
"c. c #AFACB0",
"v. c #AFACB1",
"b. c #AFAEB2",
"n. c #AAABB4",
"m. c #A1A7B8",
"M. c #A5AAB9",
"N. c #AAADB9",
"B. c #B0ADB0",
"V. c #B1ADB0",
"C. c #B0ADB1",
"Z. c #B4AFB1",
"A. c #B1AFB3",
"S. c #B0AFB8",
"D. c #AEB1BB",
"F. c #B3B1B5",
"G. c #B3B4BB",
"H. c #B8B7BA",
"J. c #B7B8BD",
"K. c #BBBBBE",
"L. c #C0BEBC",
"P. c #C5C2BE",
"I. c #B5B9C1",
"U. c #BDBDC1",
"Y. c #C0BFC0",
"T. c #BEC0C3",
"R. c #C3C3C3",
"E. c #C8C7C4",
"W. c #CBCAC6",
"Q. c #CDCCC9",
"!. c #D1CECA",
"~. c #D4D2CD",
"^. c #D6D5D0",
"/. c #D8D7D1",
/* pixels */
"* = = - - T P - = i * 7 & + + + + + % + # # @ @ @ @ & & & 7 = & i = * & & % % % % % # # # # % & i 5 7 7 6 5 % % % # % # % & & = ",
"* = = - K T P - = = = = & + $ $ $ % % % % % % % % & & = 7 i i i i i i i & & % & & & % % % % 5 5 i i X.i i 0 7 5 5 % % & = * & = ",
"7 i k - K P K - = = = = & $ % % % 5 % & & & & * & & = = i i i / i i / i i = = = i 7 7 7 i i 5 i ` ;.V.;./ i i 0 0 7 i i = i = = ",
"i k K K K l l l = * = k 7 % % 5 % & 5 5 7 7 * * 7 i i i / %.>./ / ` >.` i S S i C i i i i i i ` ;.x.z.>.%./ / i C %.Y C Y S J = ",
"7 C C k f f K K 7 & i i & & & & 5 5 7 7 7 i i i i / / / X.%.>.>.%.>.>.>.>.>.r.r.;.>.>.:.;.%.y.r.x.r.%.%.%.%.%. .o.e.@.| %.E | %.",
"B B / f f C Y E f 7 C i % * * * 7 7 7 i ! / X./ / X.X. .X.@.X.@.l.l.l.j.>.l.z.C.C.V.C.C.V.V.V.C.Z.x.:.:.r.>.X.0 p ..p p >.r.r.r.",
"7 7 ! f f C Y y.%.C C 7 & & 7 7 i 0 i ! ! X.@.@.@.X.j.X.j.@. .@.j.l.l.l.n.l.b.S.Z.S.Z.S.Z.Z.C.F.F.V.V.F.F.z.j.u u 0 p p l.d.b.d.",
"0 0 0 B B F %.E E @./ 6 5 4 4 0 0 0 h. .@.j.@.j.j.j.j.j.j.h.j.j.j.l.l.n.n.n.b.b.G.G.G.S.G.H.H.L.L.H.H.H.K.G.h.u y y s h.n.d.e.b.",
"0 6 0 7 p B F C ! p i 6 6 < 2 0 ! h. .j...@.j.@.o.h.j.j.h.j.j.X.h.j.l.k.n.n.n.n.F.G.S.F.J.G.U.Y.U.J.G.G.K.J.D.M.s u p M.j.n.e.e.",
"4 4 4 4 5 0 ! B 0 0 0 6 6 8 2 6 0  ...@.h. . .@......... .h.p h.p h.h.j.j.j.n.N.N.F.N.N.F.G.U.Y.G.D.D.D.J.J.K.D.s s s h.n.j.o.p ",
"4 4 4 4 4 7 0 p B 0 6 6 6 6 4 6 6 0 0 0 ! ! p p p 0 0 0 p p 0 u  .s h. . .X.k.N.b.S.M.M.N.S.U.Y.D.N.d M.D.G.D.M.s s s s h.j.n.s ",
"4 < 4 4 4 0 0 p ! p 0 0 0 0 6 8 8 2 2 9 s p p 0 p 7 0 0 9 0 0 0 0 p p h.h.j.k.n.N.N.M.m.M.N.I.U.I.D.M.M.M.M.M.M.M.M.m.s p s s h.",
"4 4 < 4 6 6 0 p p h.0 0 0 0 8 6 3 ; 1 e s j.h.0 9 0 0 9 8 6 u u 9 u h. .h.h.h.k.h.n.h.h.h.n.I.Y.U.G.N.M.s M.M.M.n.N.N.k.n.a 0 p ",
"< $ $ 4 4 6 8 9 0  . .p 0 u 0 e ; 2 2 ; 3 u 9 8 9 0 0 9 8 8 u  .p s  .s u  .h.j.h.m.h.h.m.m.F.U.U.G.N.m.s m.M.k.s d M.M.k.a 0 a ",
"< < 4 < 2 2 8 9 9 9 0 9 y 9 y e ; 2 2 1 1 8 2 8 6 9 9 0 0 0 0 h.h.p h.s h.s h.h.m.s s m.m.m.n.J.J.N.N.j.M.M.s s 9 y 3 s s p 6 9 ",
", < , 1 < 2 8 u 0 u y t 8 3 t e 2 1 2 1 2 2 3 3 8 8 y t y 9 y u s s s h.u h.h.s m.s u s s s k.J.F.M.m.s s h.s y 2 r y 9 s a p s ",
", , , 1 , < y a y u 0 8 r 8 t r 1 > o > > > 1 2 3 t t y y y t y 9 u u s u s s h.m.m.s s u d M.S.D.s u u u p u 2 q e t y u u p u ",
", , , , o O 2 2 3 y u e 1 8 e 3 w o O o o . o > 2 y y t t 8 9 y 9 0 u u u 9 u s u s d y u u m.S.G.M.m.s u u y 8 w 2 t 9 u p s i ",
"o 1 1 o o O w e t t a t e 8 r w w O O X o O o 1 t u u y t t 0 u u u 0 u u u u 9 t u y y t u s j.N.N.M.u u 8 t e 2 e t y u 0 y 0 ",
", , o o o O O e t y a t e r e w O X O O 2 O o > 8 y u y y 8 t u s u u u u u u t t t t t t u u s h.m.h.h.y y t t 2 2 y y 9 t 9 y ",
", o o O o O O 1 w t y e q > q w O X o 1 2 O w 2 8 y u 0 y 8 y u s s u u t t 0 u t t 2 2 t t 0 0 y u s s y 2 e t t t t u y y t 9 ",
"o O O O O O O O O e e e w O O o X X O O 2 e r y 8 u u y y y t y u u s 9 0 t 0 9 t t t t 9 t t t t t u y 2 2 e t t t t 9 9 9 u 9 ",
", w 1 w w 1 1 O O e r t r q X o o 1 w 2 t y 9 9 9 u y t 8 t t y u u u 9 9 t t t t 2 t 0 u t t t 1 t y y t e e t t t t 9 2 t 9 9 ",
"2 w w 3 w w O O q e t y t w o w 1 w 2 w 2 3 9 s u y t e t w w t t u u u t 0 t t 2 t t t t t : 2 1 2 y u u t t t 2 t t t 1 2 t t ",
"3 3 r w w w O O X O e o w > 1 e r e 3 e 2 t y t t t w q q w w w t y y t t t t w 2 t t t t t 2 . . 2 t u ..t t t 2 t 2 2 2 : > > ",
"3 3 3 w 1 O o O X X O o O > e e e 2 3 t t t u t 2 w 2 q O q q q t t t t t t t 2 2 2 2 2 2 t 2 > . > u u u t t > > 2 > > 2 > > 2 ",
"a r 3 r 2 o X o X   1 w X > r e w e r 3 t 9 u t e w t w q q q q t w w 2 w t 2 > 2 2 > > : 2 > . > t u u u y t O > > > > 2 2 : 1 ",
"6 3 2 e e O X o o   1 r w 1 e y 2 2 3 2 t y t 2 w 2 t t q w w e t t w 2 2 t w o > 2 > t t t > . 2 u m.j.m.u t > . . . . o 2 t > ",
"9 r 2 r y 2 O X o X O e w 1 1 u u 3 y 2 2 t 2 1 q 2 r r q w r y u y e t 2 O O O > > > t t t q O t m.m.j.m.s t > . . > . . : > > ",
"y 9 9 9 s a 3 1 o o o 1 1 1 1 r u e 2 e 2 2 q q q e t w w w y d u u t t t O O q O O . > 2 t t t u j.M.j.m.y q O . . 2 > . > > . ",
"2 e a a u s 9 r 1 o o   O 1 o 2 e e > > 2 1 > e e t u r r t y u u u u y t q O o > O . . O 2 w y m.S.G.S.j.d 2 > > . > > > 2 : > ",
"2 2 y a 8 r a 9 1 X o   o O o O e > > > > . > e t t y t e t y u u d d u t q O o > > . . > > t d m.I.Y.S.j...t > > > o > 2 t > t ",
"2 2 u t e e u t O       o o q q > > > . . o > e 8 r t r w r u u u d m.s t q q q > . . q > . 2 m.k.I.I.S.M.s t > . . . > 2 2 t t ",
"t r t t t u y e o   o   > w w q O > > . . > e t y y u e 2 r u s d d m.s y t 2 O > > q . . > > u k.M.N.S.M.u 2 . . . . . > t t 2 ",
"u t t t y y e q . . 1 > 1 e w q q q > > . 1 2 r u u u r e t u s s u d m.d t t 2 e 1 > . . > . 2 s k.m.k.M.u > . .     . . > > t ",
"y r e e e e q o o o o > q e w w O q q ; . > 1 e r y u a y u s a s t u d u y t t e 1 q q . . . : u s h.N.M.u t > > > . . . > > t ",
"8 3 r e e q o o o   o O q q O O q q 1 > o o > 1 e y y a a s 9 0 u u u u u y y t t e q . .   > 2 t t u M.k.y 2 q > > q . . q 2 y ",
"8 y 3 w > q o o     . o o O O O q e > >   o > 1 w t r u s s s 9 u u u u y y y y t e q . . . > 2 t t y d s y t q t q q q > > 2 y ",
"9 9 r 2 > q O q o o o . o w w q q q > .   . o o 2 e e t a u a 9 u u u u u y u u y e > . > > > 2 t t y m.m.u 2 2 > 2 q 2 2 q 2 u ",
"p a 9 e q q O o o > e > 2 e q q O O > . .   . o 1 3 3 r t 9 9 u u s s u u u d u t w > .   > . > t t d s m.t 2 t e 2 q e e w e e ",
"p s y r 2 e O O o e t t r e q O . O > > > o o . 2 u u 9 3 3 t s d m.u u u s u t w q >         > e t y u y q w r e w q w w e t w ",
"p 9 2 2 e O w O O e r r e q o X X o > > w > o > 1 u s s s t 9 s d m.s u u u 0 u y q . > > q > q e a r e w q q w e 2 q q e > w e ",
"p 8 2 w O O O O q e t e O O   X q > e 2 2 q q w 2 s h.h.u y 9 s k.k.h.s m.u u d y w 2 e e e t r a a y y e q q e e q O w q 2 e t ",
"6 0 e O O O O e e y a r q q O q e > q e e w q 1 3 p h.h.s u 9 m.M.k.k.j.u u s y w w y y t t m.I.d d m.m.t e e r q . q w q q t t ",
"p 3 r O O O O r r u a r e 3 w e e w w O q q w e y M.j.h.s y 9 s k.N.j.m.s s u t t y u u u u s M.m.M.M.s u t t e O X q q 2 e u u ",
"6 3 r w O O O r w e a r w r y e 2 w O O O O O q y M.M.m.s u 3 s M.k.h.h.s s s s m.m.m.y r a y d I.I.N.s u u y t q O q q t t m.M.",
"3 3 3 3 w O r r e y u r w y y e w q O O O o O w y s m.s s s 3 a h.m.h.m.m.m.m.m.M.M.s u d r u I.I.j.s s s s u r q q q e t t m.m.",
"p a a r O w r a y u r r r r r t w w w w e r r y s s s s s s s d k.k.j.m.m.k.j.M.M.M.d u u I.I.I.I.m.s s d m.s r w w e e r e u s ",
"3 3 r w O O a a a r r r a r r r r r r r r r r a s s M.M.s s N.k.M.M.N.M.N.N.N.N.N.M.s m.M.d M.I.I.N.m.h.m.M.m.a r r r r d d t d ",
"r r r O O O O r w a d d a d a r O r e w r a a a d n.N.N.N.s k.N.N.N.M.M.m.M.N.N.N.M.M.M.M.m.N.U.Y.S.S.m.d d D.m.d d d m.M.d y a ",
"r w r r r O O O r a a d d d d a e e e r d D.M.d k.N.N.N.n.a h.N.N.N.N.S.N.S.S.I.N.M.M.k.m.M.I.Y.Y.I.I.h.d D.D.D.m.D.I.D.D.y r m.",
"O r O r r r r r a a a d M.d d d a r e a G.T.D.D.n.N.b.N.s h.N.D.N.S.G.S.S.I.I.S.S.I.N.m.m.S.U.Y.Y.I.N.m.m.d m.D.M.D.M.M.m.d d m.",
"r r a r r w r a a r a d d d d d d d a d G.J.J.G.G.D.N.S.N.G.D.D.F.J.K.K.I.I.I.I.I.I.S.M.I.M.I.Y.I.j.d m.I.m.m.M.M.m.d m.m.m.N.D.",
"r r r w r w w r r r r a d a d M.G.J.K.K.K.K.U.T.J.G.J.J.H.J.J.J.U.U.K.U.U.U.I.U.Y.U.S.S.I.I.Y.Y.I.N.I.M.I.I.Y.D.m.d d m.D.M.N.m.",
"r r r a a a r O O r r r a r a D.K.T.R.T.T.T.E.T.U.J.J.K.U.T.R.Y.U.U.U.U.U.U.Y.Y.Y.Y.I.I.U.U.Y.Q.Y.Y.I.I.Y.I.Y.D.m.d d m.I.S.I.I.",
"a r a d d d d a r a d d m.r a G.T.T.P.R.T.E.W.W.T.U.U.Y.R.W.Q.R.U.K.U.U.Y.Y.Y.Y.Y.Y.Y.Y.Y.Y.Y.Q.Y.Y.Y.Y.Y.Y.D.d y a d m.N.S.S.I.",
"a a m.m.M.D.N.d a d m.M.N.N.D.K.P.E.E.P.R.E.!.!.Q.E.Q.T.T.Q.Q.R.K.K.K.U.R.T.T.R.Q.Y.Y.U.Y.Y.Y.Y.W.Y.Y.Y.Y.Y.I.u a a u m.Y.S.L.Y.",
"N.M.M.m.M.D.D.M.d d a N.I.K.T.P.P.W.E.E.R.E.W.~.Q.E.Q.Q.E.E.Q.R.Y.K.U.K.U.T.R.E.Y.Q.Q.Q.Q.Y.Y.Y.W.W.Y.Y.Y.G.S.m.d m.m.m.S.Y.Z.L.",
"b.N.N.N.N.D.N.N.d d d M.I.P.W.W.W.!.W.!.E.W.Q.!.Q.R.E.E.T.R.R.E.R.L.U.Y.U.R.R.R.Y.Q.Q.Q.Q.Q.Q.Q.!.Y.Y.Y.Y.H.S.n.M.S.N.S.L.L.Y.Y.",
"b.G.G.I.J.N.d d m.d m.N.L.W.!.Q.W.!.!.P.P.P.P.W.E.U.R.R.R.E.E.E.R.R.R.K.T.R.R.W.Q.Q.Q.Q.Q.Q.Q.Q.!.~.Y.Y.Y.H.H.G.I.S.I.I.Z.L.L.Y.",
"G.J.K.J.M.M.d r d M.M.D.K.W.~.~.~.~.~.W.P.E.P.E.R.R.U.R.E.E.E.E.W.R.R.E.R.R.E.E.Q.Q.Q.Q.Q.Q.Y.Q.~.~.~.Y.Y.I.G.G.G.F.L.L.Y.Y.Y.Y.",
"J.J.G.N.I.I.T.T.T.Q.T.K.K.R.~.^.~.~.!.P.W.W.W.E.R.E.R.W.W.W.W.W.Q.Q.Q.W.W.E.E.E.Q.Q.Q.Y.Y.Q.Y.Y.~.~.!.Q.Y.U.H.H.H.H.L.L.Y.Y.!.Y.",
"T.T.I.T.Q.~.^././.^.W.P.L.W.~.~.~.!.!.W.W.W.W.W.W.W.E.Q.!.~.~.!.~.~.~.!.Q.W.R.R.Q.Q.Q.Q.Y.Y.Q.Q.~.Y.Y.Y.Y.Y.U.Y.Y.Y.L.P.!.P.W.!.",
"W.W.Q.~.^././.^.~.~.Q.E.P.W.!.~.~.~.!.W.!.W.W.W.W.!.Q.!.~.^.^.~.~.^.~.~.!.R.R.R.Q.Q.U.R.U.~.Q.Q.Q.Y.Y.I.I.U.U.Y.Y.W.!.!.P.!.P.!."
};
