/* XPM */
static char *result[] = {
/* columns rows colors chars-per-pixel */
"64 64 115 2 ",
"   c #201E15",
".  c #252217",
"X  c #262318",
"o  c #29261A",
"O  c #2D2A1D",
"+  c #312D1F",
"@  c #2F2C20",
"#  c #322E21",
"$  c #363223",
"%  c #3A3626",
"&  c #3D3827",
"*  c #3A3629",
"=  c #3E3A2A",
"-  c #423D2B",
";  c #413E30",
":  c #46412D",
">  c #49432E",
",  c #454132",
"<  c #4B4631",
"1  c #4E4933",
"2  c #4A4638",
"3  c #4F4A39",
"4  c #534D35",
"5  c #534E3A",
"6  c #575037",
"7  c #585137",
"8  c #56513A",
"9  c #5B543A",
"0  c #5F583D",
"q  c #625B3E",
"w  c #565142",
"e  c #5A5541",
"r  c #5E5943",
"t  c #5D5948",
"y  c #655D41",
"u  c #685F42",
"i  c #635E49",
"p  c #676043",
"a  c #6B6344",
"s  c #67624C",
"d  c #6D6649",
"f  c #6F684C",
"g  c #706746",
"h  c #716847",
"j  c #706749",
"k  c #746B4B",
"l  c #786F4D",
"z  c #7B714E",
"x  c #676355",
"c  c #6A6552",
"v  c #6E6955",
"b  c #6D6A5B",
"n  c #746D52",
"m  c #786F50",
"M  c #746F5B",
"N  c #777057",
"B  c #7D7452",
"V  c #7E7659",
"C  c #7B7662",
"Z  c #807753",
"A  c #847A55",
"S  c #897E56",
"D  c #807759",
"F  c #857C5A",
"G  c #897F5A",
"H  c #857E62",
"J  c #8C8057",
"K  c #8C825C",
"L  c #91865D",
"P  c #94895E",
"I  c #878064",
"U  c #8D8463",
"Y  c #8D8669",
"T  c #8F886B",
"R  c #908762",
"E  c #948A64",
"W  c #998E65",
"Q  c #948C6A",
"!  c #998F6A",
"~  c #9C9166",
"^  c #9C926C",
"/  c #958E71",
"(  c #979073",
")  c #9C9372",
"_  c #9E9678",
"`  c #9E987D",
"'  c #A09467",
"]  c #A1966D",
"[  c #A4996E",
"{  c #A89C6F",
"}  c #A19772",
"|  c #A49A74",
" . c #A99E74",
".. c #A59D7A",
"X. c #A89F7B",
"o. c #ACA177",
"O. c #ABA27C",
"+. c #B1A67C",
"@. c #B3A87E",
"#. c #A69F82",
"$. c #ADA482",
"%. c #B0A782",
"&. c #B3AA84",
"*. c #B8AF86",
"=. c #B5AC8A",
"-. c #BAB28E",
";. c #B4AD93",
":. c #BCB494",
">. c #BDB699",
",. c #BFB89B",
"<. c #C3BA95",
"1. c #C3BB9A",
"2. c #C6BFA2",
"3. c #CBC3A4",
"4. c #CBC4A8",
/* pixels */
"a a a z J S B k 0 f Q } X.+.^ a q q q 4 > 6 q a a l J J Z A g J ^ J L L | P g 0 q 9 6 ) $.~ +.| A A A | o.B L P J z L L L k J J ",
"q 0 h k k a q 9 # & q J }  .! a a k h a a z q q h l k k q y 9 A L A L | | ~ J B J S A W ] ] ^ { P L L @.+.[ [ P L J ) ~ L J P ^ ",
"q q u a a 0 9 9 & # < u A R A A Z h q q a k q q u g a 9 7 0 0 g A J L ~ ~ o.[ W P L z E | o.o.@.@.[ ] *.@.@.@.{ W ~ @.{ ~ ~ @.+.",
"1 4 4 9 q 6 0 y k < < 4 q k l a Z h u a q 4 4 4 4 7 q 6 0 y u l J J E P ~ [ ^ L K S S ! E o.<.3.3.<.*.{ [ o.@.~ L L { [ L J ^ o.",
"1 4 4 4 7 u l F ! F u $ % < u a a 6 4 9 < > < 6 4 4 7 q h Z z K L L P J ^ +.E B k q q 0 h ^ 4.3.1.-.@.{ o.-.,.+.[ ~ '  .[ ~ ^ { ",
"> 4 1 4 q h A ! =.X.R g j m l Z h 1 1 > = : > 4 > 4 q g h a k ] P P L J ^ L z a 4 < % : q R X.o.o.) K K E { =.+.o.L L ) *.W L ~ ",
"> - - > u l ] O.#.Q B F ( ( G z k a 9 6 1 : > - > 7 q u a a J ' K ~ L h k h a 7 4 4 : y k ) } Q +.o.! o.o.P K E ) B B K ^ E J J ",
"4 > 1 1 4 7 k H n q y 9 y y y 4 0 r 6 6 : < : $ 7 q 7 7 9 q z l a p y 1 > : > & # O # : 9 n f a B n n n N N a f f a s d d z B f ",
"I m q 0 4 f a l g < # # 4 8 4 - : * H Y Y Y v * a k p 7 < * Y B a a < 1 d 9 5 - # 8 9 d m a $ d l d a q * 5 9 0 p a $ 8 6 f K p ",
") S q q 1 a a k j 4 % $ j a 1 - : = Y O.$.$.Y = h h y 0 9 = B n z R 8 8 d a p 8 % f y B U B - k B h h a % 7 h B B U : c B J ^ / ",
"Q S k u > a k a a 6 # - d 9 < > : = Q _ _ O.V , h h a p d = F E B K 0 , y m q 4 # y d y B Y - a l a d f + 7 a y q a = n ! ! ! E ",
"| ^ z a < j z h a 0 $ 1 q 4 4 1 * ; ! $.W U K = h h f a B ; N K E K 9 < j l 0 4 $ y j a k Y - a B k A T , 9 k y y 0 $ H ! P A V ",
"^ ] z a 4 N z z l u $ 5 d 9 4 - = : J ! R A d = a h B B B & h R K U 6 4 a q 6 6 $ q y 9 a d % y a f A ) t 0 n h 0 6 = V ^ B K B ",
"R U g k y n l Z l u # w k y 6 9 3 $ y V m f 0 * 0 a z A l % a V f S 8 4 a a 0 0 * a B a 9 y % 9 4 4 0 V w 9 h h 9 p ; p B B R E ",
"E K z A y A Z S z a - r a 9 q a 0 $ q f y h d = 0 a z A k - 0 > a K r 4 f F B y - k Q A a y % y q 6 4 p - y k k a z < c ! E B ~ ",
"d A z z q k z A z a - w y 6 k j y , B F K A p : B h J P B , V B j z 1 4 A E U f ; a K S h q & j B f y l : 9 l k h V 5 9 B ^ ^ W ",
"m c N A a z B A z p : w 0 0 f f n 8 E E ) L a ; l l P E g : K R z p > 1 J B B k , 0 B A k d - a B a y h < 1 k l J K 4 4 Q R R K ",
"U F A B u B J Z k 0 = t m a J ! I 8 E J J B B = q l ) ! p * Q L z l q 7 B l V N , 9 d A A A < d J f 0 a , < y h B B , 1 a f K E ",
"Z A A B p U ^ A k p , c K V J W N 3 K ! K V I = q l ! ) g = K K J z p 9 h l A / 2 a f J Q T 6 B K k a k < r p B K V 1 r 9 0 J A ",
"B B k B i Q J k z k 1 i F J L E B 3 L ) W E K = p B W ) a - ! L L J f 9 B J J ) , h B K J B > B K J B h , k l B ^ J 1 f J B l a ",
") B a q q Q J k j a > p ! L S S y < J L K ) T = a J P E 9 = ..^ L J z q A K J T ; f Z Q Z B * k L L Q f & p h K | B : n T J k p ",
") A a p 8 F S j a a 3 c ) Q ^ R 8 * p V V ! J % l K K ( 6 ; _ E J L Q 6 l B B I , l K W Z k # a A ! ~ f # 1 d R O.B = M Q A l B ",
"S d y q 4 B k a a y 5 8 K ) ) S 7 ; y k n U I $ y J P E 0 , ..B l W J 4 l B J A 2 J E T K f % k A W W B % 1 h K O.J : 0 h A B B ",
"a 9 4 0 : k S l y q - - Z R B a 1 t _ z a K K = a V J B a ; o.B B Q l 9 m k K H = U K A Z k % f B Q Q l = 4 l J _ N & r y B E J ",
"p 4 > 6 - k U k 9 q % & A U k 4 - w ;.I J A V ; q a q h a * ^ J A A p p J h k B % Z d y Z B * l k z Z a * 7 A K ) h o 4 f h J K ",
"9 8 < 4 - a B B y q % $ B A p : % 3 _ | @.) B = 9 9 q y 4 $ ) V J z 9 0 Z f p f $ l l p B Z ; I J A A k * p P L ^ f o 1 k y V ^ ",
"9 6 : > - k l z a y - t U U u : > , E ) -.,.Q & q 7 9 6 1 % ^ K ^ Z 4 0 B h 0 0 % f l p l d - ( ! J B k - 0 B K ) n $ > g y n B ",
"9 6 > - - N k j a 0 2 b ^ ^ N p d w E +.-.,.I & h h 9 0 6 $ I B L J y 0 l p q 0 * k p q f p * K ! L A Z - 7 g Z ..B 4 4 h p 0 h ",
"4 4 > % - F B j q 4 * c ! O.$.) Y 3 E O.O.%.V = q 9 g a 6 $ T K y h n 0 h q 6 q - d p 0 f d ; A E W A B - 9 a f V m 8 9 K B y f ",
"9 4 > - < H R l q 9 & M ^ =.3...V w R K ( O.I % 6 q g a 6 % / J 6 a B p k 0 1 0 - p f p l V , T ^ K z a % 7 y B B l 5 9 J J k p ",
"y < - - - m G F d 6 % e U =.1.O.T 5 U B K $.T $ 0 V J g 6 ; ) l 1 h V q y 0 0 p * 6 q p y f , ` ^ L z a * 1 8 l U B 9 1 B J l h ",
"y < - > - B Q S j 0 - 8 S O.=.^ K 3 ) J B K V % 9 k V y > * ( J h l z r 1 < 4 a * 4 0 p 0 7 % ( ^ P A B , 4 p l J k 8 1 p A B B ",
"p 1 < : ; V ) E K n 3 t ..O.[ E Y 5 ( J V J V % 9 q y q , * ! L J B l 0 1 7 y 7 $ 8 p d p 8 @ I E J B S 2 9 z B U J t 4 a A ! ^ ",
"y 6 < : < K ^ E R J 8 x O.| ] ^ T 8 ) L A A F = 4 0 0 7 6 , ..~ J z a > q a l h O 9 B U a 9 * / U y a F 5 s S K ! K 9 4 B J U K ",
"0 9 > > < V K L K F 6 9 ^ O.=.) F 5 ) ! K B m : 0 u a h f , ..E J h 7 : h h k k $ 8 m B j p % T U 9 0 S 3 y S S U F 8 9 A R J A ",
"6 6 : : 2 I T ! W T r r ^ [ %.o.V w ) W J B g > a a q m d , W E J l 0 1 h q q p $ 6 6 f g q O I Q a 8 F 3 y k B K U e 9 A E A m ",
"6 6 : : < V W ^ ^ ^ e r J R ^ } A 8 R T J J N , g q q g 9 & K E L B h 1 q 0 q q * p p p a p # V K B k B , a z K ) ^ t p K W K m ",
"9 9 : = > V ^ +.E L 8 8 S E E J n < Q | W R I = h a u h 9 : ^ E J J p 1 p q 0 9 $ p g 0 7 0 # I A ^ W h % i L } ^ ^ t f R K J z ",
"q 4 : - > Y O.*.! V 8 8 K ^ o.R m : K ! ^ K J = l z u z y , } J z l y > 0 p 9 9 $ 0 6 9 9 9 @ T U W U y $ q R  . .! 8 s B g S B ",
"9 > : : < ( =.-.) J 8 e K ! | $.B 1 ! ) K l a & z a q Z h = K l J Z q 4 V l a k * 9 q 0 a a $ Y U z A a $ 0 A [ ^ E 8 0 B y A J ",
"7 > - - > ) } :...A 1 8 J ! W %.I 3 B A J A a = S j a A a % z k J z 0 y ) ) K K = p k h a B * T L z S A & i J W ^ R 4 9 V a z B ",
"q 6 > - 1 X.] | ..A < 8 U ! L ..B 5 L E R F B < R J J A y $ z J W L p 7 I O.E B ; p K K B z = ( R h U T & p U ! W L 8 9 k a l h ",
"7 4 1 - 2 $.X.| o.Q 9 r K F g F d 5 V B n B B 1 A L P A q # z A ! P 7 7 J E K z ; 9 y J P z ; ( R k S | 1 v ! =.,.%.s r a q h h ",
"6 1 - - 3 ) O.o.o...r r m g m J f e Q V B J N ; k A W z u + z J ^ P 7 0 E ^ E n 1 k q f E K ; ( ] K S ) 5 0 a ^ >.=.s 8 j p z A ",
"9 6 - 4 8 Y K ^ P Q 8 r p B V J V t ) R J J V ; k Z L Z h % A J P J 0 7 K ) J K 3 J K P E ) , ) O.~ J J > 6 9 K %...9 4 a g k A ",
"a q > 5 5 D z A B K 4 3 p K K F n 8 ! E O.^ I 2 k z J S l > J J z h a 7 A h A ) 3 K K P J B * T +.E J S : < 1 A O.! 1 : q q 0 0 ",
"( U y 0 4 V L z B B 1 3 n ^ o.W B 3 E ~ o.E m , q a J L J : Z Z a q h 7 a k J E w Y J B z k * K | J S z & : : K ( K : : y q q 4 ",
">.;.d 4 1 B ^ S A z 4 e K | o.^ U > B K ~ K f > 9 g Z l u & h Z p 0 p 6 q z B l , k a 0 a a * T | J A m $ & < V f a - > a m q 1 ",
"U R q < - V ! S k 9 : 8 V | O.~ U > J J J J z : q A B h q & h l a a j 4 9 q a j - 0 q q 1 y & F ] L z a # % : q 9 q : : a z q 7 ",
"Z l 9 0 : k S S j 8 % w K &.>.o.T 5 I B K ..U > k K B h 7 % l g q y a 4 9 0 a k : 9 0 0 1 y = S ~ K a 0 # : > q g a 1 < y q q 7 ",
"B h q q < F R z y 0 & v ^ =.3.} V 8 U J ! O.Y ; l L l 0 9 # q 1 > 4 y 9 h q 0 y = 9 q 6 6 g & k W L q 1 # > 1 q a h 6 6 q 0 y 6 ",
"l k y 0 < H S a 0 4 % v ! $.:...I 5 E ) o.O.V * p a 0 0 9 # 0 4 q l U q k q 4 0 = 9 0 > 1 9 # q A J u 7 & 6 7 9 q g 6 7 h 9 6 6 ",
"J A k h 4 B k k g 8 , c ! ^ K B N w Q %.=.:.K % y a q h y # h a h A A y h q q q & q 1 : 1 > + 9 z A a u - 4 0 7 f a < 4 q 7 1 4 ",
"A z j y 4 m z k a p , x Q Q p < 4 2 U | -.,.Y $ y h 0 z B $ y y q g 8 u Z f 0 4 $ y 9 : 1 > O q h a u q - > 7 q h 9 @ > 0 7 0 7 ",
"A B m q 5 a k B q p % % B V p = % 1 ) ) =.$.F * y a y h a + 7 6 4 0 - u B j q s # y q < 6 4 O q q 6 7 6 + - 7 7 0 :   < q 0 a h ",
"A A B p 6 f U k 9 9 * % A K f 4 = w ;.T R F n = p 7 a a 6 O 4 6 9 9 , f S h d n $ k 9 4 u 9 O 4 6 1 4 1 o $ 7 4 6 & . 6 l z h y ",
"r 9 8 < % 8 p 9 < 1 = = s c r 1 $ : V 7 6 0 8 O & & & & $ . & & & > - 4 q 9 4 4 O 9 > > 6 > o - : : - * o $ 1 1 > = $ , 6 9 4 - ",
"9 > > 1 1 9 y q p a I I F I K B q q q 6 4 6 : % & % > 7 7 7 > 1 4 9 q 1 4 0 < < > > < 6 6 & & : : 1 7 a g p k V B k h 9 6 6 6 6 ",
"4 1 8 9 1 9 y q q a B U T E E R J z h 7 6 6 9 0 q q u a u a 9 9 0 q a 6 9 4 4 4 > 1 6 6 > - - 1 > < 6 h h z z L E J k y 0 6 7 q ",
"f 9 9 0 p d 1 < 8 0 V R ^ E J W ~ J z h a a a y a h h h h h h q q u a q 6 6 0 4 1 4 6 6 0 6 1 6 0 q a K A B B L K J B a 0 6 0 q ",
"z a q 9 9 : % - 6 a z l A A k n z l l h z h q h l z Z Z z Z u q a q u q q q q u q y h a a a q 7 6 h B J J p 1 k P z h a a y p k ",
"p 9 - $ > < = = y a 0 > q k : : 7 : q 7 7 7 h h h h h 7 7 a 1 0 Z z a l k u a Z S B z a y 0 < $ % a K B 7 > > 0 l l y p B J B A ",
"y 4 + o : 6 6 4 1 1 $ $ : > O o & O > & : + > > > 7 7 & + % + 7 g g a 7 u a q h z a y h a q % X $ 9 d 0 - > 0 1 > p y 9 h l a y ",
"% - $ o O O o O $ $ O % % $ % % $ O o & $ O o o + + + O . . $ : & & 4 > + # % $ O o & : % = = O O O o O % % - # . + $ $ # O X % "
};
