/* XPM */
static char *result[] = {
/* columns rows colors chars-per-pixel */
"64 64 86 1 ",
"  c #2B2522",
". c #2D2A2A",
"X c #352C27",
"o c #332E2B",
"O c #3B3027",
"+ c #35312E",
"@ c #3C332C",
"# c #353332",
"$ c #3B3632",
"% c #3E3936",
"& c #3E3B39",
"* c #41352D",
"= c #45392F",
"- c #483A2F",
"; c #403731",
": c #433B35",
"> c #4A3E35",
", c #433E3A",
"< c #483F38",
"1 c #4C4137",
"2 c #46413D",
"3 c #4B433C",
"4 c #4F483F",
"5 c #514136",
"6 c #51463C",
"7 c #52493E",
"8 c #594C3F",
"9 c #3F4040",
"0 c #454342",
"q c #4B4642",
"w c #4D4944",
"e c #4D4C4A",
"r c #504740",
"t c #524B44",
"y c #594E45",
"u c #524E4A",
"i c #575047",
"p c #5A5146",
"a c #54514D",
"s c #5A534C",
"d c #4F4F50",
"f c #504F50",
"g c #545352",
"h c #595652",
"j c #5C5955",
"k c #575758",
"l c #5C5C5B",
"z c #635449",
"x c #615B54",
"c c #695F55",
"v c #615E5B",
"b c #5F605F",
"n c #63615E",
"m c #69645C",
"M c #646463",
"N c #696663",
"B c #676866",
"V c #6B6964",
"C c #666768",
"Z c #676869",
"A c #6C6C6A",
"S c #726D64",
"D c #716F69",
"F c #6F706D",
"G c #72716D",
"H c #7B766E",
"J c #6F7070",
"K c #747473",
"L c #797772",
"P c #777876",
"I c #7A7A75",
"U c #777978",
"Y c #7C7C7A",
"T c #837F76",
"R c #807F7B",
"E c #7F807D",
"W c #83827D",
"Q c #898679",
"! c #838381",
"~ c #878885",
"^ c #8A8A85",
"/ c #8B8D8A",
"( c #8E9089",
") c #92948F",
"_ c #919490",
"` c #999A94",
/* pixels */
"llbbllMBAAFFKZlbAAAKZFGKYYEKBbBABP~PRWY/)^~UYUPUYUUYUURUEUPIKMkl",
"w&22,3,3:23232,0l302203wwqeq4wuugquuegakvkhxgffglqwtqeeqqw9&w,2f",
"AX1>13666:7335ygj-1441464:71:8pxJ:443w,r3,3t3qekK<3q&q23,,33<q4j",
"MX>:1:3<>;r3:37kn=>433331143%46nY,q4qq<rq<0qqqqfL66q2q2300qq<,:k",
"M:>>::3:3$q3,47kB::34,3414422a7lP<q443r632qqq0qkD3r3,0wq03rq053g",
"v;:>:,q,<,4q,:tgm11323321333348jM33q000t,34r3,3eB<rr<:w0e3rr3qrl",
"N*>:%:%,:,43%%3dv,320,3344&:138hb,4,e20tqq3q302aB,,3wqqq,w3qq0tn",
"LtpysuuuvahhahxBvwwiusussawswxxnMuuueaagguhsxxuFDquete0kuuusuttM",
"E^)`/!EYPKBMMBnAKYK!Y!KKPUKW^^_^!~/!UUUKDJUPRPKLAKYRR//YPMJKKIU/",
"qaahg000l&+#+$&&,quus0eemew4gaeakhftwwqgw09,wuq&&9q0uukkM3ww&&qu",
",%33y200New334745140rr0fW=%16111t6qr461nl;#3,q,,&:%:3:4gko,2#.$:",
"2&&qaqwgG3,%:3:46>tttw3eB1221%123tr36t1jM:;<3q%0#:,:,,6keo3,#+$,",
"&%%23q0dF:::4qw44663y4wen3&11212<5rtrt1xM::rw,&<:,:,2<wgv#:&&##&",
":347p:20N14033333443itwej413,412rq3qqy4mk$;,q2%,,<,%q34gm::0&##,",
":,:3t3w0j:00&2;;&%23yq40B4:23,,2tq033t5jj;:34,:3,<,%,2qel%2w##o,",
"tahjmwjMGpyuwuqw0edgmhjkVi400w2iqwiyrxylGtqrsr3pt3ptqptgSqtw&%q,",
"RYKJPKKAIILLPYKPUAZZKZdAUIQEEEKIKGAGGIHIYILKLILIKKIIPIDKYLIIUIY!",
"b,,,9qq00eeaue0dM,,%,&wq2q0eww9bvqeukhahakgfhkubMfgeggffeeelggfA",
"G>,3q,03722,334eu<t3&#3311%4q02jk@3,31ty34::<5rln&0&,w2e2,&0200A",
"L:,%,,<32,q&,3qgl<2,0&>32&22ewebj%;;,3rtq,%,4qrkb%0&2qq0%,q&229l",
"H;:%,333:222,0qMA1:#&&122$2%222bm@;:3336t<,:>,4lZ%0&,3,q&3q00&&l",
"H;,,,,7r322q22ebA%1%&,124@22222jAo->566ztq<351<lC#3,30,,,&300,9n",
"D3<:,,63322q20weM3>:%&31222$i22bG+>>>>>yq<,:373kS%,,,<33,2,0,00v",
"Vuuuw0sxhaaiueugli147433t%22442jN16rr4rzir024yukAy0,rq0tyutwuewZ",
"YUUIKJJJKUUYYPPKYEIYWEYPPMmGEEH^(QQEUYYIPKGKKDAUJIKLTIYIUYYPUPAY",
"tuwtttqbAqugaeaaaegahkhBBadeggsahjhuughCbwudkgqwqeufefhUBthuuurq",
"<<3<3,$MU:,0323w2,22&9,bm12,2,12,,r,<6qll%0$,,tq,,29%29US;3<:>6:",
"336r0,,AA:92024q9&222,2Bn:2%21133rt4<6qNv%q,&,qq&,0,,03CN;t9:<q<",
",3qrq,:AR%,0,224q&9922,GS%2$26113ru4,63VN:3,,300<30090<CS=<,:,qq",
"<,3qq3:N~&2r2332e2,2241FH@1#%1213rhr:,:MN$2,,q,<3q33,<0ZS:q::<<:",
"<>33q23kR,$42333&2&2,21nS22%:2=153qr:33kl;,,,,,,:r<9q<2CD@2::<3:",
"xxhssahMYsussjhjjhhhbsaFHtw4ihsis8ysuusANytwetysuuutaiaDD6trryis",
"UAAANMBBZAJIPAAAGPEUEGFEWYYYYUYLKR~YIU!~~WWRYRYYIYURYRRE!!!!!EEE",
"A,:,,:%%,$%,,<3eeqaagadeewe0e00MlwsjjuujhauauuhAf0uehehuweeffwqb",
"W::>3::,,%,,,31sg%2q2222&$2%32ybN=;<3<<7655<<3yIC:,2,q,2,&,,,,2k",
"T$:<:,:3::<:,63gg&22q2qq2%2224ekK:><,<<3r66,<34DC<,9909,,&00w0qh",
"I>:>>2;;:%::,,6td%22224q9:2224ugA>,<3:t34t83,<3NR<q2%,222w&,,2&f",
"D5:<3,,3:,&:<#3wg:%q23q2&%232&3gM><<,3<33344,,4lY,2,2qq,rrq,2w0e",
"D<;::$&:,%,%&,6e0$$2222:2@&::32gN$,:,,<<3:32%>6aV:%::,q,:<32,&qe",
"KxsuhasksgjksuywkqeaaiswawuwqeqlRuteeuftiuasiuaZDwwuwuuuuywtwrtn",
"IIKKUUJKYYY!RUKJEEE!~/!EKFJKUUU!__~~EYUPPYYEEYUYYYEQY!~!E!YKZPDY",
"u2e9,20e00teeeu2egauqegkBjganNaawt0wsikew00eequeefugduwlC,ewffae",
"r3r3357Bq@,:::<<13323:3bbp6wsu13r3w664tej:3,33384,24q32lMX><<66<",
"<ry,3>3vg@,,,,<3:3q:333kh4uui23q2<rut14ex:,q3344400ru37lv@><<<<<",
"34w2256me+<:,<03<603q<yva3wu732wwqrtw37dl3312wrt,,qtt3rlm@>,6<,2",
",2u0,34Nu 3,,r0,<w3333yMa3e4w42qwy3<r7tdSqw222qr7,3trrwlM@,&,2q,",
",3q,333bk.$&&,0,%0q4336ki2d4wq2weu33334lA2434:3qw20wytwlvX:,,00<",
"eueuu0wMn30qqwttttw3wtslji4ushhjuuyrttplHpqaueaheweagafvD,30euuw",
"ANNAAJAAFKJZZDAMBPPYYHPPYQWIHIQWQ^WQQ^!U~QFBAPYEIKACZDJJKKAZJALI",
"l#&0,,q000,0009eahjjjhhagaaaaaalgnnvnghsw00aewegh,,,www,qwewq,,g",
"V#:,323qwq&23,,g11111144:44367aA:43142761%2w23eMx*>:,<,<43333>qk",
"So&,0,30,q0qqrkg61334226,q3314uKa::344r2322003eNsX:;;%,&<,3<3,ak",
"S$,&&,0330,0,,sg112333q244qwq7uZe:334333,9223uwMiO;;:,,%,<,&3;ul",
"G$:0,2qq0r0<3,qd&42333uq<6wee7uZi:33e4122&2q3rsMzO;:%,2%00w3,1rg",
"V::320qw<000324e%4wqw337474q24uMe&:q442&229q32hZuO;:#%0&,q02,,3u",
"x47uqahsurqw,wsg4ewekjaawut43raAhqwasxjae0wjgaVYx330,ttteggtwuhd",
"ACADVJCJLDKLDALKIILUKJKUEYEPPVBJEYEYYEE^/YPU!_~EPVBAbMAAAAZbMMCl",
"2,22,2%ej<0,rq,,33,3,<2wkahagdddauewu00Gm:0q,hwq,&,q0&&0h%%%&#%,",
"::<qywweu->;>5>3164<3>8ah&22220e2224wu0(N@::#2q3:%,,,<4wi>3:%#:<",
":<,ys02ea->:>>1>:tq,<<6kB%,09&deq2qqe0d(N;3,;ry2,:6q33qgc:w2&.#2",
",09qutrea>><<3<<3>40:33lV&&229q023w3eqe(G;::#tt3;%,<3q<kN##&###&",
"qqqyyqrea:,<<4354q23314bK22,22233wrwqqeED;::;<r03,,r33qgS<,,#&00",
"qqehu<yfh>00<<<33qq3041gA2,22323qww4qq0Yc%<<%qr3,,,q3<0nm<r<##02",
"eethjyigj0q00uqqq0uwwuwlBq0903e3wuua0wqJx<<02ryrq,3rt<,vSrhw##ew"
};
