/* XPM */
static char *result[] = {
/* columns rows colors chars-per-pixel */
"64 64 74 1 ",
"  c #242729",
". c #323434",
"X c #393937",
"o c #3D3D3C",
"O c #413F3F",
"+ c #41403F",
"@ c #49443F",
"# c #454544",
"$ c #494745",
"% c #4A4946",
"& c #4D4C4B",
"* c #514C47",
"= c #514E4D",
"- c #4F504F",
"; c #53514F",
": c #4F5151",
"> c #555453",
", c #595654",
"< c #5C5956",
"1 c #5B5758",
"2 c #5D5B5A",
"3 c #615B56",
"4 c #615E5C",
"5 c #64615E",
"6 c #69635E",
"7 c #5E5F61",
"8 c #615F60",
"9 c #5E6164",
"0 c #656362",
"q c #696664",
"w c #6C6966",
"e c #676769",
"r c #6A6768",
"t c #676869",
"y c #6D6B6A",
"u c #716B66",
"i c #716E6C",
"p c #6F706F",
"a c #74716E",
"s c #79736E",
"d c #6D6F70",
"f c #716F70",
"g c #6F7171",
"h c #757372",
"j c #797674",
"k c #777877",
"l c #7B7876",
"z c #757778",
"x c #7A7778",
"c c #77797A",
"v c #7D7B7A",
"b c #807A76",
"n c #827E7C",
"m c #84817E",
"M c #89837E",
"N c #7F7F81",
"B c #817F80",
"V c #7F8080",
"C c #858382",
"Z c #898684",
"A c #8C8986",
"S c #878789",
"D c #8B8788",
"F c #878888",
"G c #8D8A8A",
"H c #908780",
"J c #918B85",
"K c #928D8B",
"L c #94908E",
"P c #949291",
"I c #999594",
"U c #9C9997",
"Y c #9C9999",
"T c #A29C9C",
/* pixels */
"CkZAZKGw#<skvAnnnsuu#rr=14=1562pw>;;*kt0<yskjllvsp<ljklVGGGlGPGm",
"vCGAKZni14jslnnjnnbs><0%,05unlhwkkp5o*52qkmmllVlZh>sFkkmGmFSLGCm",
"ZvCmZZMk0&ajsmMnbbkw;;4%3wjjapwqsVkp:+65lMSllVkmCl<aCFvGGLGCmGmP",
"ZkCGnvZjr0yjMbMmhis4<q4ohhljah5snMnk7*unFlvGGFGmLV<klClCGLlllyZZ",
"kkvFmvvvihsjbjjsibu3hj1=jZnihl5lvMVv<%wvZvGLPPGvPG<lckvvmPFlvhhh",
"CvmCvkklw2psjsisql60jjy0vbkvih,akkkk>56kJvZmcvGZIh<llkMmkmVmGZmZ",
"KlvChkyy0-upsiy0q0q0uh42fxhhvjwwwpw6*apVZGZCvvGCPl:hlhvmvamvMlZG",
"mvnCgyZCh;wjbypu63ihii2&yrhhhh52ww<,4yssmmvSZZSSFg-whpvmGmvhZmmA",
"GZZnlpmMm<waMsaa2<avvky,&<<wuu2,;5,<5l>wjakmSGCVhw,shkSlvmZJZmml",
"KDnZkipyh,<ambawrylskbhi6<-%;;>7,-.>5a*#smkKPISvl5%jgyhlkllZZmmk",
"lkyki0240,<uMMu65rgyhahiawuw2200wp@-6w5,>aVGFvVmh7&shkwavlhvCCvl",
"khqhh5,<35655su5rey0rryyapwp4wjzgk:<Vpakp%4svvZZyw>spyt5akvlmnkv",
"ii6w00&5u<6;&*<;ua270050wawp55ZlMk<:akpjk7#<lhvy5h%slaqaClCvhyql",
"65qisy%,ubuw5<;;-6ww90r00ywt0pChFv0%ppphka5&qay55<>qq5qqlahkhqqq",
"y0iiwp5#iMap0ww6;;;iir00w7tw0agegks%ukkFVll7;a55<%&25>,;6jw0aw6<",
"whni0ww@6Mj0pq7500,15y20yhh0ttvhVpk>uvwKLkp5>y5;572ajww7;3656uww",
"vkly0wp&3bi8ify8rhyydy0tifq4,2tglyy1uknAbqr11BB82yphyffyryy2,ssh",
"Mjayqya2*68jxfhfdiyyty0rwq82>yyry9t&>rhki8418bBb><hyykh0whh04iha",
"Jjwsawa6$qufxxify08088q1030>70hh70y%10ruq88fbBnb>2jaakZhyhvw0yyh",
"vlsyy0ps=qbjxnidyy01;=;>,>=>0ehkyt7&42<38sxxBBnb1alah0hjlha0qhyk",
"khvvlywa;ubbbBBrrfi88828021>,0ry0t2%664>4iifBBBB0wbifyhvvlh55arm",
"hkvCmkww;bB8fBfr08ffriq8000y>yify0:%uuu6rfxxBBBB05khxknbmva25wyl",
"0vkhhy761rb8fNBff0eeydrr00ty&1yt09#%3usfixnnBBffy2nvfvLMrpy5<20w",
"0slyhaaq>8bfrfffBydyyffyyyyh1>28t0o&>iynxnxxfrNr0,lnjCIZyaawiy0<",
"2<wsbrub16Bbfb8ri8418rrrjfrfrr,220%Xo6yaBBfbffBb8ObfbBKKvvh0ibxi",
"hawq6648116b66818,%=488rbyfrfjq=&5>o -laBurbffbbr&xufffbvlh3wivC",
"vbns686>=;611861441811rxrff88i8O%40,o#ytfrrffbfff1qujynnvhh2qrvx",
"nbjhbnbu8$6ufBb1rfedrrfffr88881*6h72#>yirbBbibff8$8uxbBBnvx=uxjx",
"BKbbBJBbu1bubrr8ffrffffrsy1;11>>rii0$=qefBbfbfr68Orbbxjffjf48iZn",
"ZCnBLBBB6*bbffu6fffjfrfu88113318rqff>#rwffBfffbb8=unjx8fbBj14iBK",
"BBJBBBBbbubbBBB4Bfiir8f88r4118uxisjni$qrBbbffbBBy1qbBBBBBBb8unLK",
"KBLLLBBBBBBBBTb6bir8rif8rr8frrrfixxjk#1iBBBBfbBBBr;ubKTbufsuiBHJ",
"BBTBnTTBBBBBBBi8fubbbffe0yhryagwijxfi&%xvSBnvBBBBvq8sbJhsbbu4sjB",
"TBnBBBBILIBnBBuqsbBnbfiyrpywghkhfxvxr,#8yCCnnvCBBCh>wnbssiu6qbbn",
"IBBBnnBBnbBnBIu8nbBBj8etyvpyhhgwfhzhf>#jhCCVvxvZBZn;ujsnjbbuusbB",
"BIBbbnBTBBBBBnu8nBbBx8yfhdkzvywpyxBhx;XunZzlnhvZCKB3Mnhbjbni6bBJ",
"bnBBBBBBBBBBnj88rnbbhfftrrvhhpwpyyvyf,.8mZlvvkVCZKy1nnvnsib3bsBB",
"TnTBBIBBBBBBBBr8rsnbzhxd7dw05550y5w44&&umGvvlmmGNZh>lMZLbZJq48BH",
"TTbBBTBBBBTBDJf4bbBnZcvy004509020,5r4;<whg0pkvvmkni#lGGLDZnquqjx",
"nBBTITTBBTBBBBB1bBBnGvh54<ly7ypppkai2%hut0,55awuuis%hLAJZZBquiru",
"bBBBTTIBBLDBBKn>bnbffff874pw2gZVCVka><s7ww2w5qw6qs4-lLZFCnMuyqs3",
"bbbbBTUBBBBnBBx;6bffxffxtglhgcFCkVVp,asw60w:29yvkkj45LmkIKhuMwab",
"b3bbBBIbnBKJDBf;ubBbbf4iwvvkkkFVhVlp<VkCVkk2arhVVGGk%aMMKK0iMbws",
"bbbbBBBBLJIBJZ83rurbf4$rkVckkkhpmlk5,hvFVvZplhZClGGA4<wp0jqlJJb6",
"rruBTBBTIKJBsbuqijfBbf11mvvckVVkjgg02kCvMjllmkGClCZPwqlsw3sJMMMb",
"Br66bBJBKZBnuuBB8BBBjuf1kvcgkVvkVvyhylVvGFvwlvmVVlSGasZLZawMJaMJ",
"Bb6b6bbbfj8r8BBBbByffrjr2hkgkVgpc0ttplVSCVaqwvGCZZVl5VLKGl0wMabJ",
"Kbu3bb6bjb$3uBBj8jiirrir:wwkvvgkp7<0shlVFmlksjZVCCZhwlmKGMl2MmbA",
"nnBbqj6a5q+3qnmi4siu8q8q8f&0ky952<454akFVvZkahZLClgallGZmZPvwmll",
"bbBbui665w;5wuji8ur8ujB08>>2pw56<>wt<5wchlVjwhZLSy<yvvFZvVLZwbAs",
"6bbbsi535sllCyq6sxnKDxvir&<k>;<,%5p5:-45wukw05alVp7ahZVGkhFlmssw",
"subblZqqwmZmnsn<hBnjZni1<*uh4,vp0<5504;<r,55q0ulw<wlVFCVvVGZnslZ",
"JBnnnKqrvmGvvyCnrsxfnBB1%4hvc#qpVvpy4wpwh9y0;>05s<lZKZmCVKGGM<aG",
"BJKDJKh0MZmsnMLLr3fxnbBi,ivvv>wpVvgVzzFFVcPV02hy,5vMmkGFGKvVm,wV",
"BBLJPIZ0mnMmnZKKDusnZnnb>ivxy,wkkvkMclvFCFFv9lFCs>kVFVGGGmFlkqlI",
"BBJKKKZu<hMJmZSKTj1bbbii>hCzy74ppcCVVVvlVGCh0lCZZ0shmZCGFGGlswbK",
"mVFZZMMs&nAKMZAGZC4qqq0q>pCCt9,ytkgVkMCVkGVyalvcv9yhFIGLGGGZlhih",
"kZZZGGZZ>yJJAJZmCk,5wuii-skgky<5gkkVVlvGFFkwVFZVh,ycGPCmFCZFlkwj",
"ZGLGGJJb35jJvanCh44ahbbr3kkpkm-0VkvVkkcCLLapVSGSm,0lVVFGVVGZvhiM",
"ZLGFZZAmq5whi66ia>00jjh,umMlVl<wkkgvkpvVmmz0lZFGV>2lchlCGlplhwsG",
"lZmkahmu2,0;>5;w5>5yjsa>aVlbma<2y:>pMMVCPF0kvlhZZ22vwapylwO2wquZ",
"ashssqa<5#5<qnq5q<5jjpp<wvbgka<#<X%ggVvVGF0hgypww0<ywlsus5@@*66j",
"6525<3*,4;6amvsah0-4aVp2skaqta4*2%<kdCFCPC><00wwq6<y,:<wwsjwwnsq",
"Uhlja63,;uhZMmjjla5%<lp-ps55<q54-%:6VVGVCw,,>>,5<56GpksmkmlmVZZG"
};
