/* XPM */
static char *result[] = {
/* columns rows colors chars-per-pixel */
"64 64 242 2 ",
"   c gray49",
".  c #6F6F6F",
"X  c #626262",
"o  c gray45",
"O  c #989898",
"+  c #9A9A9A",
"@  c gray63",
"#  c gray71",
"$  c #8E8E8E",
"%  c gray24",
"&  c #565656",
"*  c #8D8D8D",
"=  c #979797",
"-  c #818181",
";  c gray32",
":  c gray26",
">  c #373737",
",  c #6A6A6A",
"<  c #AFAFAF",
"1  c #B2B2B2",
"2  c #B7B7B7",
"3  c gray50",
"4  c #3E3E3E",
"5  c #727272",
"6  c #7C7C7C",
"7  c #909090",
"8  c #A5A5A5",
"9  c #ACACAC",
"0  c #9F9F9F",
"q  c #5B5B5B",
"w  c #A0A0A0",
"e  c #E6E6E6",
"r  c gray74",
"t  c gray61",
"y  c #959595",
"u  c #CDCDCD",
"i  c gray87",
"p  c gray89",
"a  c gray84",
"s  c #7B7B7B",
"d  c #535353",
"f  c #4E4E4E",
"g  c #929292",
"h  c gray82",
"j  c gray76",
"k  c #CECECE",
"l  c gray42",
"z  c #2C2C2C",
"x  c #767676",
"c  c #939393",
"v  c gray75",
"b  c gray83",
"n  c #BCBCBC",
"m  c gray62",
"M  c #A2A2A2",
"N  c gray51",
"B  c #C5C5C5",
"V  c gray",
"C  c #BBBBBB",
"Z  c #D2D2D2",
"A  c #C8C8C8",
"S  c gray65",
"D  c #9D9D9D",
"F  c gray66",
"G  c gray79",
"H  c #888888",
"J  c #AAAAAA",
"K  c gray72",
"L  c #898989",
"P  c #A7A7A7",
"I  c #B6B6B6",
"U  c DimGray",
"Y  c #585858",
"T  c #6A6B6A",
"R  c #CBCBCB",
"E  c #717171",
"W  c #C3C3C3",
"Q  c #C0C0C0",
"!  c gray77",
"~  c #484848",
"^  c gray33",
"/  c gray52",
"(  c #CACACA",
")  c gray47",
"_  c #B9B9B9",
"`  c #AEAEAE",
"'  c gray67",
"]  c #9B9B9B",
"[  c #A4A4A4",
"{  c gray55",
"}  c #9FA09F",
"|  c #747474",
" . c #D7D7D7",
".. c gray81",
"X. c #DFDFDF",
"o. c gray29",
"O. c gray43",
"+. c #C1C1C1",
"@. c gray18",
"#. c #686868",
"$. c gray48",
"%. c #868686",
"&. c #797979",
"*. c gray56",
"=. c #8D8E8D",
"-. c gray60",
";. c gray78",
":. c gray69",
">. c gray68",
",. c gray57",
"<. c #848484",
"1. c gray36",
"2. c #8B8B8B",
"3. c #ABACAB",
"4. c #6C6C6C",
"5. c #505050",
"6. c #A9A9A9",
"7. c gray64",
"8. c gray54",
"9. c #838383",
"0. c gray40",
"q. c gray70",
"w. c #3C3C3C",
"e. c #3F3F3F",
"r. c #5A5A5A",
"t. c #676767",
"y. c #6D6D6D",
"u. c gray44",
"i. c #5F5F5F",
"p. c #656565",
"a. c gray39",
"s. c #414141",
"d. c #7E7E7E",
"f. c gray46",
"g. c gray86",
"h. c #606060",
"j. c gray38",
"k. c #646464",
"l. c #444444",
"z. c #A8A9A8",
"x. c gray53",
"c. c gray59",
"v. c gray35",
"b. c gray58",
"n. c #494949",
"m. c #808080",
"M. c #515151",
"N. c #7C7D7C",
"B. c gray73",
"V. c #DADADA",
"C. c gray93",
"Z. c #D0D0D0",
"A. c gray15",
"S. c #4B4B4B",
"D. c #5D5D5D",
"F. c #777777",
"G. c #555555",
"H. c gray28",
"J. c #5F605F",
"K. c #3A3A3A",
"L. c gray30",
"P. c gray22",
"I. c gray37",
"U. c #252525",
"Y. c gray25",
"T. c gray34",
"R. c #4C4C4C",
"E. c #464646",
"W. c gray31",
"Q. c #2F2F2F",
"!. c #B1B1B1",
"~. c #D5D5D5",
"^. c gray91",
"/. c #E9E9E9",
"(. c #C8C9C8",
"). c gray88",
"_. c #D8D8D8",
"`. c #B6B7B6",
"'. c #C0C1C0",
"]. c #C6C6C6",
"[. c #B4B4B4",
"{. c #A3A4A3",
"}. c #202020",
"|. c #B8B9B8",
" X c gray27",
".X c #313131",
"XX c #434343",
"oX c gray21",
"OX c #ADAEAD",
"+X c gray85",
"@X c gray90",
"#X c gainsboro",
"$X c #8B8C8B",
"%X c #AEAFAE",
"&X c #393939",
"*X c #E7E7E7",
"=X c LightGray",
"-X c gray16",
";X c gray14",
":X c #1B1B1B",
">X c #101010",
",X c #1D1D1D",
"<X c #343434",
"1X c #1E1E1E",
"2X c #2D2D2D",
"3X c #969796",
"4X c #888887",
"5X c gray80",
"6X c #9A9B9A",
"7X c #BDBEBD",
"8X c #A6A7A6",
"9X c #959695",
"0X c #BABAB9",
"qX c #B9BAB9",
"wX c #C4C5C4",
"eX c #2A2A2A",
"rX c #353535",
"tX c #787978",
"yX c #F3F3F3",
"uX c #A1A2A1",
"iX c #DDDDDD",
"pX c gray94",
"aX c gray17",
"sX c #E2E2E2",
"dX c #EAEAEA",
"fX c #A5A6A5",
"gX c #676867",
"hX c #BBBBBA",
"jX c #282828",
"kX c #C9CAC9",
"lX c #323232",
"zX c #222222",
"xX c #898A89",
"cX c #626362",
"vX c #A9AAA9",
"bX c #9E9F9E",
"nX c #8F8F8E",
"mX c #828382",
"MX c #999A99",
"NX c gray13",
"BX c gray6",
"VX c white",
/* pixels */
"  . X o O + O @ # $ % & * = = - ; : > , < 1 2 3 4 5 6 7 8 9 0 3 q w e r 9 t 3 y u i p a O s d & f g h j k r l z x c v b n m M N ",
"B V C u Z n n j A B S D # A k n F G H J j K < c . = L + P I 8 U Y T R L 3 E x 9 W Q ! 2 1 8 ~ ^ / # P L F ( - ) W _ ` Q J I W 8 ",
"' O ] [ @ ] { - M v } | ' h  .V ..X.y 0 ] t # = l D g S K 1 * o.O.H ( @ O O M r 7 L [ P +.N @.L ( @ #.$.%.g &.s k [ { *.{ A b =.",
"-.t c 0 ` w m y O M * ; D ;.V + :.c q *.t + >.,.- ' <.t # O 1.&.7 2.W 3.D C ;.2 @ P _ 2 m 4.5.[ n &.) y <.6.C %.2 m H L 7.! S ) ",
"W :.,.g 8.9.] >.S ' x 0.q./ w.e.r.0 t.$ = + O y.u.0 *.P 2 i.p.8 a.s.] + d.H < 8 ' ! ] f.u.1.) 8 ' f.*.,.' g.` Y c h.0.j.k.. 7 / ",
"I P 9.4.8.y   <.t L l.| z.d.* ,.J x.h.F t t >.g 0.c.D P ' 3 8 2 % v.! K F , l 9.t b.*.* 5 q 6 J 2 *.5 8 .._ / n.m.g F 6.m.# 7.M.",
"N.| L y m c d.y./ ] u.  < B.V.C.Z.M h.O.A.5.| 2.<.g b.x ) E / *.S.t.&.$ L E D., - F.$.,.H G.H.y.1 P ) a.l p.d O.{ &.M 9.. 8.d.J.",
"K.o.N s 9.1., s L.5.P.I.m 2.d.7 $.G.U.L.% f I.$ t O 9.0.L.n.Y.G.3 9 D c c H y t 8.x.H L 9.T.M.l F.3 v.S.L.o N w + y.O.& R.E.5 / ",
"B ;.v >.y x.m.W.M.7 c.%.d.&.Q.^ E O r ( B.!.@ N $ ,.J +.q.g U g ~.V.^.i /...r (.~.).+ m _.B W A Q ` `.y U W _.u Z j k '.r 4.. ( ",
"V V ' = !.B.+.- o y 6.J V a y.$ S Q +.d.D m.&.d.N <.[ :.%.r.j.s <.B.v b.[ O y.5 * I [ N M F # 9 c 9.t *.t.K 2 8 :.7.@ D [ O.2.a ",
"-.%.N d.%.H = 3 $ m 6 ) 8 Q y.H b.M @ F.+ <.s x 0.9.L g 0.S.D.g h.&.3 T.u.f.v.  y %.. S.I.8 J 3 | <.] s D.r m M ` $ - c.D k.L W ",
"8 F D c -.m M -.[ c.  j.-.+.| $.  2.m 2.J ` g { <./ * 3 6 - s :.$ 2.= { L $ = C C [ r.5.-.].b.O.2.( Q l U K r ].v D g ] ` 0.` W ",
"` [.q.Q V ..u {.l - 9.F.*.J 5.4.s m.s 0.-.+ b.f.i.f n.}.@.%.s - d.H w ,.= q.:._ G |.s.T.8.N l 4.c 9 b.r.L.I.@ k B # C n [.i.J h ",
" XY.S.d q F.t.S.j.7.4..XL 8 ~ k.E m.XX@.~ 4.| % w.i.D.H.oXG.) $ p.,.* a.G., f./ O D U q ^  XG.&.= ,., n.q #.E ] 7 = D + / 1.S.; ",
"0 [ M $.h.| . / m :.[ x.8 ' = 7.OX@ ` 6.< +.< ` 0 9 R ..S y +XB b.# Z.B 7.W S B.< J >.Q n o T.# W v C Z.@XB B r V [ / u.].( >.* ",
"#XX.X.Q w ! G v r B.V ;.y H = Q 9 c !.` P J < W j x 0 2 S y V 6.m.$ O $X&.F $.S !.+ 8 Q Q ,.r.A { O ] B Z...9 ,.B. .O g q.{ F _.",
"1 P [ 7 = G +.8 + N U &.s X f.:.o a.- c s c M 9 c.u.k.<.* ) - b.m.  o . | 8 8.B %X-.!.C 9.&X6 ;.$.%.x.b.g 9.x { ' # + c 0. Xt ..",
"T.w c.,.x F 0 $ 1.u.8 [.S { b.] &.*.8.c %.y.<.t 3 u.3 9 9 %.$.t H - f.- 7 >.7 V 0 8.2 1 5 @.P *Xu W ;.j S L + !.V K -.j ( * ' M ",
"i.| F.9.i.3 b., w.) v !.[.=XW :.N -.-.= 1 / / y $ & -Xf x D ` t ,.w < Q m O 7.+.K K u *.U ;Xj.9 [.-   # L * M [.` t O >.!.= -., ",
"v - i.u.| ) $ -.-.  U , - ] ` 0 > 1.&.8.= %.6 %.=  X-X:X>X1.8.F.d.y J ,.& d y.M _ ].< K.,X}.v.h.l.X o.W.Y , E m 9 | 4.8.g < c.2.",
"2 [.K [.` M m.4 o u.q ~ e.e.H.XXz W.L.<X1X2XE -.<.m.3Xx.a.f.D ` ` ` !.6.3 n.| , X   x S.<X Xp.$.0.E P 0 - H / = P M [.c r.5.U H ",
"I O 6.S K q.b.1.m < F >.6.2.x.H = =XX.{ <XD.4XQ G v 1 ].2 2 V ` M + [.W 7.v.[.0 ^ E $.x | x.O [.2.7.@ * B. .k J ' 5XZ m o r.` !.",
"c.O 1 M S I S b.n < F ' |.` =XV m ~.[.E o H j.F.a.{ 8 2 # *.y.] 0 x.$ 0 + 9.< < D.!.7.O 6X[ W |.F.L &.s :.` ,.o $.O.-.) , a.a ].",
"` ` S 7.F F P P # O -.!.( G  .B.V V.E ) $Xw w %.) 5 & q #.*.$ D !.2 ] D :.$ / + $.B.O / g t w 3 j.<.<.] :.0 O.$ O 7.9 D 7XL m { ",
"A # + J [.!.7.@ S H 8XV 5X2 M 6.#Xb u.P + V F 2  .A 1 < { g < 0 P !.+ t P 7.J 8 %.t 9.$ t M F <.E   | * Z.K J j V v A v = q 8.D ",
"v 9 M M :._ >.5 1.t 9 8 9Xb.c m d.. m.* F.F 6 / A h V ! <.y 6.1 8 9 J M S 9 K F 8.[.c 8 D t 3.+ c b.T.d.;.M n B.[.1 1 w G.~ J B.",
"< 7.[ 6.>.2 B.$.c # * &.$ 7.:.< x.2.%.6 f.q.m O $.2.+ y I.H J = g f.v.T.l m.3 $.H Q @ < O.M q.7 w @ 0.9.0X7.# K _ C 2 9 g 3 6.V ",
"K C q.# n 2 K 7 S ` :.L 0 P n v Q !.w :.6 y B _ *.E * y h.2.-.i.4 o.k.E j.T.4.N x.Q q.W I G Q t 0 K m.  V r 2 C qXQ ( ].W s M 2 ",
"u b ;.B wXM P   1 B n F M d./ N %.8.7.N l h.1.5 J -.F.M.w.^ o j.$.@ B.< c.c F :.c # -.8.8 O [.[.0 J P { _ v +.B v V 2 = 5 5 !.j ",
". x t.k.T.h.a.D.* 8., 1.l.Q.s.k.0.p.4.j.  c t.eXrX&.d.,.L #.. D.| $.a.I.p.W.D.- O.5 o.4 ^ , r.| ) 2.g tX* t w 8 6.m 8.x E 0.) U ",
"O.y.+ m g F S ] ) . y.8.b.<.*.[.D c.9 J C =Xh 7.{ d.b.+.` !.0X-.- q.B.n ].! I -.:.!.5.i.F H ) F ' # 1 0 T I.&.G.Q.z P.; u.<.5 o ",
"' q.yXV K h A I H j.>.+X] J R ` 6 @ [.q.V # [.;.| 6 8 9 { J 9 J -.A 2 +.j !.K n k j h.d F i.{ Q = * < 2 a.Y.O.. 3 0 6.2 C k V.*X",
"S V n q.! ( 8 * J t < P 0 :.` x.) y q.1 < D V :.p.( 1 $ g b.* = $.r t * 9.0 1 0 O Q d.q Z.!.< b.-.2.%.L ) * 8.B._. .v ( _ 2 ].I ",
"%.= q.n I P <.d.] { D u.X 8 >.b.- * n v v J ;.J ; < = *.2.y -.{ | 7 - b.*.*.7 F.. k.^ X W # 3 y./ 9.H M $.y.-.B.1 S [ < t m M ] ",
"J v :.U F.8.N -.b.H D 8.{ ` 0 c.= S v n ` 1 v #.& -.$ *.{ c.6.7 &.= 1 m { 8X= J d.t p.3 G [.$ [ 8 F 8 !.N $.x.[.' { O w y N < W ",
":...N & 1.0.J 6.8.*.,.2.^ x { s | 8.C V x.{ [.a./ G.R.= 0 9 v 7 % $ 6.D w B =Xi V a p./ >./ H *.{ m.. >.= W.9.K < b.@ ' M c 6.R ",
"w B.= N s 8 ,.6 a.5 2.F @ d.a.t.. m.D 0 { | t.n.E P.}.t.s %.= 3 E.F.' [.< %.4.O.-.x.; h.0.D.T.& u.) M.6 2.5.,._ S c c ] O c.D.E ",
"- F.& r.* D * x = 2.m 8 b.M b.g *.| y.0.O.t.f #.<.#.1.) 0 H O.U y.E N L g $ m.3 m.m.5 ) w S { g 6.` { d.j.G.^ l.n.r.L N *.[ t >.",
"n r w &.< J { 5 c <.8 c.S F M < ..b.$.d.$.* ! Z.G f.u./ =Xi q & ] c.!.>.>.W B./ F ..C j =X..].! C _ 6 G.a.5 F.] :.R V.m.#.| 5 Q ",
"..a Q 2 I +.w & g *.t ' uXg O j ! !.#.D.' Q { 9 *.P.^ c.# n ~ j.M :.B ] 2.W 5Xd.2.C !.` 9 S x p.$.g f D.[.Z.iX*XpXi 3 I.) X U ! ",
"9 v 8.7 w 9 b.y.M *.O ,.M J +.=XJ f.q y.2.y.&.* &.L.v.y M D w.o 1 ` t | O < H a.7 0 E.> aXM.l %.!.+.j.H iX_.sXdXa L { r < u.6 G ",
"' r = d.  %.p.&.P ] D < [.@ 6.[.*.m y $ q.` ! !.+ k., %.` t j.=Xb [ = %.,.' ) P.o g XX$.E L A K u B 0.+ dXR Z.A y.$ C  .r fX:.~.",
"* G P p.s c.+ @ ] %.J [.6.S @ P m 9.h.2.W 2.*.O C $ ) L :.-.O.V.2 g <.X y., %.) 7 [ h.!.n m n :.V C d %.q.2.>.1 * K k v -.c.  m ",
"L Q :.b.p.3 t ] * x.` ' ' ` !.` -.- k.c M 0 V y J V m.x._ g x b -.x.g F.N b._ L 8 .., Q k q.C q.B.# f d.S N ].1 9 *XO ^ X S ,.y ",
"` +.t ] J 7.D.u.{ 0 q.F >.F ` ' -.r o k.F.1 # 5 h.  T.F.] O.1.-.8.= + m K W 7 @.0.g p.` @ x.' J 8 * U.o.7.s O.n.| O %.' *.x.= ' ",
"x.7.2.F.9 F a.Y m.[ *.x.{ j.&.+ 6.<.: j.v.k.o E.s.l.1.k.q G.E.t., O.3 0 :.H a.j.gXe.S.I.H.%  XH.6 x v.: e.w.d e.w.eX&X~ oXo.#.x ",
"2.9 < d.9.k.| 1 O & s.I.5 f.8.5 S.&._ B ,.| U 5 - j I t + 0 w 2 u 5XP %.' B v # P S b.P # n : L._ 5X=X+.hX_ >.f.{ -.t H 6 -.:.$ ",
"# # G Z.P $.m...9 F.$ 0 < ' 2 y #.  %.n 9 >.' w 3 ' _ W b +Xk _.).W * ) 2.+ w g x.M P ] :.w Y.H ! +.u r Z.+.@ / q.v K w @ ~. .[.",
"8 ] >.q.7.y.p.H &.<.] 7.F   H m - &.O.6 * F 9 { 3 s ] Q b R ! [.< -.2.T.@ ,.- u.= +.I I !.v.jXj.. # q.9 K M 8.6 F I :.] S =XZ F ",
"` F 2 B._ t x * d.$.7 ] &.7 [ M O.7 6.D F ` L <.7 ` G M @ !.;.[.M < g k.1 -.y x y.w [ q.j %.aXv.$.S 0 D w ,.P 2.+ 6.>.[ J Q ! ' ",
"@ D S 9 8 6 - 0 $ = P b.| 2.P $ l J # g + >.2 ` c y b.c 3 = 0 s 2.1 &.v.0 m ` [ -.C B.Q ;.p.rX7 c <.F M | / n o * P ' D m !.>.@ ",
"q.I r B 2 0.. [.q.Q W L <.8 r D 1.* F t 7.J y M *.~ x F.b.= | . 0 ' m XX. 0 ' 6.S 8 [ 0 M ;  X8.  Y 8.! = :.P S.<.' 9 < K ! kX1 ",
"O [ 9 b.] & a.V 0 d.x h.D 6.D 4.i.F.p.. { ) . J x p.{ - 2.x.p.x { + L <Xt.7 N + m D O #.q R.1.s x.H.X w /.pXK %.w :.g d.c 7 w F ",
"#.p.lXA.M.o.l m.H.% zXe.k.Y I.F.. l t.F.-.F y - f.b.b.b.; -X@.E.d Y.M.d 0.a.f T.U x - f % <Xn.l 5 p.E.P h W / D.5.W.% p.F.N &.x ",
"7 c f.g P ] / @ y.3 ] M P ] 9 P m >.w 0 8 V D - t m %.@ O %.* %.' [ P 2 u G r J 7 H w F H F.].2 u.E N ( W 2 _ +.m.o.% [ A c :.V ",
"3 | m.` 8 C 0 m v.4 c B :.j V ] w r t w >.< { #.5 O U o x.r xXcXJ >.w I h q.q.1 +.F *.;.Z.!.).#X+.g.( q.B /.5X[ 2 # >.K m q J b ",
"H ' [.j m w c.0 e.q ] V V I !.J + y = w @ 8 + { l ,.W.j.@ D v.& + @ @ !.W D -.D ! I F.2.0 n ` q.' :.N L M ;.K w L [ ] 6 T.o.H < ",
"!._ @ _ B.u.6 >.r.c.< 2 # F P ' P ` 9 q.1 S @ d.U Q ) #.{ / = E *.t ` ].;._ P 6.h < ; %.6.C D w O $ &.{ 7 g { <.u.* m.) ' + ` ,.",
"B y $ I ] 6 1 # h.L 9 J S M vX9 :.q.:.[._ M y 8.o  .D / { 7.F q 9.c.8 < P 8 O P b ' O.g 7.= %.c y 8.L ,.c.= P M Q *.m.U >.x.@ 7.",
"S >.] J <.g C $ Y b.1 >.# < 1 :.!._ [.>.< y ' *.#.>.*.c &.2.m E * c -.] $ %.$.* ( ' o t m *.{ 7.w c.2.3 = g * = 6.>.M %.# c.%.9.",
"-.y e.X 9.= = E v.8 [.!.C < # F >.B.:.< [ O :.{ F.-.c.*.!.I 8.^ x.2.F 2 K n 7 t ( m ~ w [.$ 7 D bXw ,./ ] O y ] ' |.t | 1 [ L S ",
"7.@ ) nX8.f.8 O.T.F F J 2 [.>.F [.K 1 9 c *.< { E mXj.O.@ g b.q | 9.u.F ` n c.m.C 4.XX+ < ,.8 y 8.y w O S [ = c.@ 2 j . 0 8 2.&.",
"W * MX_ x X / m.G.[ m ] :.q.# K 7.>.I -.<.H 7.x.l l 0.5 & 1.& I.2 0 /   p.H.4 t.y lXH.L 0 P = <.c y c.8.f.= ' $ [ 0 o 1.' 2.7 [ ",
"u.W.@ j 7.b.0 O.k.d ; W.v.j.#.S.Q.e.; NX1Xz : R.l.5.r.> a.0.^ E u.p.c.9.j.k.j.T.I.r.| l | 4.p.&.%.t.^ I.; o.E.XXM.aXBX;XM.1.<.F "
};
