/* XPM */
static char *result[] = {
/* columns rows colors chars-per-pixel */
"64 64 102 2 ",
"   c #26221E",
".  c #342F2A",
"X  c #36322E",
"o  c #3A352D",
"O  c #3E392F",
"+  c #363332",
"@  c #3A3631",
"#  c #3E3A34",
"$  c #3F3C39",
"%  c #423D35",
"&  c #433E3A",
"*  c #464137",
"=  c #4A4135",
"-  c #46423C",
";  c #4A453D",
":  c #4D483E",
">  c #514A3E",
",  c #454441",
"<  c #4A4642",
"1  c #4D4A44",
"2  c #4D4C48",
"3  c #524C45",
"4  c #534E49",
"5  c #555046",
"6  c #595246",
"7  c #56524C",
"8  c #5A544D",
"9  c #5E584E",
"0  c #575450",
"q  c #5A5652",
"w  c #5E5A53",
"e  c #5F5D59",
"r  c #615A4D",
"t  c #605750",
"y  c #625C55",
"u  c #685F57",
"i  c #635E59",
"p  c #6D634D",
"a  c #71674C",
"s  c #7E6F4E",
"d  c #666155",
"f  c #6A6355",
"g  c #6F6957",
"h  c #65615B",
"j  c #6A645D",
"k  c #6D695E",
"l  c #746C54",
"z  c #7A6F53",
"x  c #70675F",
"c  c #736C5B",
"v  c #796F5B",
"b  c #7C7154",
"n  c #77705D",
"m  c #7B725D",
"M  c #666461",
"N  c #6B6661",
"B  c #6D6963",
"V  c #6E6C68",
"C  c #706760",
"Z  c #726C65",
"A  c #786F60",
"S  c #736E69",
"D  c #767165",
"F  c #7B7464",
"G  c #7F7867",
"H  c #75716B",
"J  c #7A746C",
"K  c #7D796D",
"L  c #767471",
"P  c #7B7671",
"I  c #7D7A74",
"U  c #7F7D79",
"Y  c #817456",
"T  c #82765C",
"R  c #84795D",
"E  c #817761",
"W  c #837A64",
"Q  c #897C61",
"!  c #80776B",
"~  c #837C6C",
"^  c #887D68",
"/  c #827C74",
"(  c #837E79",
")  c #898064",
"_  c #86806E",
"`  c #89816E",
"'  c #868175",
"]  c #8A8374",
"[  c #85817C",
"{  c #89847D",
"}  c #8D887E",
"|  c #908673",
" . c #918A7D",
".. c #878481",
"X. c #8A8681",
"o. c #8D8984",
"O. c #8E8C89",
"+. c #918B85",
"@. c #928E89",
"#. c #95918D",
"$. c #9A958E",
"%. c #9E9893",
/* pixels */
"i S ( U V Z / +.@.X.7 i #.' { ..P H H V I V L H H { P M } [ [ [ ' z G [ ..{ ..{ U U [ h H X.[ { ` ` / { ..[ / [ ~ ' { V e P ..U ",
"B +.+./ J ! P / { / 7 Z ] J ..{ P P { { ....+.+.#...I h ' D J [ / n D P U ' I V J P U e S { / J F F D { ..I H L F F D w y / I U ",
"j X./ J ! L j C S Z 3 < y j B j D P J h H U [ [ U P V 1 N H D J H J J V B J d - 8 w 1 - 3 w y q 1 w V N N ; * h h y w & w A H u ",
"& 8 w h y < X & 6 1 < o 1 w < ; 8 3 2 % 1 w i j 8 3 - @ ; 3 3 2 4 3 6 1 5 8 : $ $ - - 7 - < < 1 1 2 h q 1 1 i y 4 1 2 w i < ; % ",
"1 H ! ( P C V L ( P ( L o.O.U [ S S ( J ~ ` ` _ J I U I { ..[ I [ M [ U [ o.[ [ ....[ [ ....( ..O.N X.X.[ ............( I P U S ",
"t ( ( ( ( ( o.o.{ } o.} [ I J ~ B H ` W Q F G K K I ' U ' V J I U j [ I I U U [ [ [ U U I P / ( [ h I U J I I L / ( / S S I o./ ",
"q ! S ! ! ! ( ! Z C S D D U U J 7 y D V j N j V J K N k w 1 : D V w I k k J J V J d h B H Z N N w ; 1 9 5 2 8 5 7 8 8 Z J S H y ",
"u ( j 3 & 6 8 8 4 : % 5 y w 8 2 + - 2 2 # - $ 3 8 8 ; ; j 0 5 8 7 8 5 ; 1 7 ; 3 - o % o < y u 7 e w e 7 4 < 4 2 ; & o w N y 3 3 ",
"P [ V N V V P [ ( / i S ..! / U B H ..[ L I L ..( U M i ( P ( / ..[ J J I P H S S S P V ( { ( / ( X.../ ..{ ( J B H 4 / ( ( S P ",
"[ K ( O.{ _ _ { ../ y N ( J H P m E X.X.o...O.} ' { { N ! x u t j J J { { X.{ ....+.O.C D I H J ! / J N J ( { / { L 5 h ( ( ( ..",
"B j j J V B B J y - & y j 4 3 w w Z L K J U I U I / P t j 6 5 6 C D ! / I K / / U ( ( i B [ J K / S 5 3 4 6 t B S i 3 y / J J J ",
"- N V j q 8 i y e N C y w 4 0 0 , 2 3 1 2 7 1 w 7 j M i u 0 e 0 S Z B j w 1 e h w B S q e i h h 0 < 0 e w w q 4 1 4 q N i t w 7 ",
"i O.{ U [ #.o./ { +.o.L P ( +./ w V L L L C V S V H H U L / { ( H N ( ( L I I L S V V J U [ U [ L i ( ( U P U / / P S L ( X.X.j ",
"V o.K q N L B y D / L j S J P S q I / { ( ( ( / I / J P / / } ( B 0 ( I D U U P J H H U [ J J [ / i ! H N V S / ( N i L ( ( H 1 ",
"2 i h $ - < , , h S 7 7 S H S N 2 B Z B N j B j u h B N B N k j w q V i 7 w j M C V N j e e h M i 1 N V V j N S S e q V L S q 2 ",
"q M [ H P J / P U / G J / ' [ ( ' H V N < h N V H H U L I I L B L { L N w e V U I U U B e H L h 2 4 i P ..M V U / U I ( [ ....P ",
"I U P 0 U J K P J K ! I F K / ' / D H B , o.[ O.o.@.O.$.O.O.@.o.O.o.K I U L @.{ F D J k k I J J V J H S K 0 I ' J L ..O.o...[ ' ",
"L L H @ B J P L P D Z L I I / / / / P h ; / J P P P J P P J L ~ K J J J j h ' / K K D D F K K D S P J P ( w N V H D H J J H J L ",
"9 w 5   5 w w d u 8 1 7 6 : * 6 8 8 8 3 X B N j A u 6 y t w 8 w 8 9 w y 3 5 Z N Z V V V V Z Z H V d B B B % 3 t h w 3 3 6 t u w ",
"j N j : d J V B L { S 5 e h q N Z B H V , h y V B N B B y j S j 7 y 0 y 9 $ t j j j j h d h B H V V B h j i B N N H e j P H B Z ",
"+./ / S D / [ { ( [ } i L #.@.@.{ ( ( / / ' ..{ / { X.{ N X.+.#.' ~ { _ c d G / X.#.O...U I D G F K { J J / / [ ( X.u Z { / P ..",
"J H B S J J D Z J H Z 1 h D J J J J P J D I / / J K I H 1 U / / J L L j Z I H D / ' [ U N C D J J H J P U S S J J J 4 8 J D J L ",
"= O o o < 5 7 u u 6 * # 4 C j S j h N j u t u j j Z S y ; C A u h N Z d i V B A J c 9 6 % t B Z S Z h 4 w j d 8 8 3 % . ; & : : ",
"7 5 w w & j U { / / S u d S H F J J D C 7 # ; 6 = o O % 3 < ; ; > : 5 * . @ % % % O O = : < 3 7 6 i h w 7 y 5 4 3 3 q q 7 1 2 3 ",
"....#.{ 4 ( ../ K / K D c c J c c D c F D 7 ( +./ V N C C H { ..X.o.X.[ J e N H B S S H I P J P U / ../ N o.o.O.O...X.o.....o.{ ",
"J / P H 4 H J J H D P L H I I K x Z J F h w +./ A J o.o.J F / [ I ' [ ..X.h U #.@.o...[ U / ~ I { } { J t ( P / / / [ ( / U U U ",
"d d w 5 & 3 6 u d j h 8 8 k h j h j j N 6 1 j B D j B Z B k A B V H J I K w B [ / / U H H P P D S d t > 0 S j C S C j d 2 w d j ",
"6 e N j w i B L I P Z u j D B j 5 1 o o @ - * o $ - ; ; 6 w w 3 @ @ ; 6 5 % ; 8 : > 4 4 8 w e 1 ; = & & 3 5 4 1 1 : 4 3 * * X * ",
"S U P J E { [ [ / / ..{ o.} o.@.0 5 B H I I U S i B [ [ [ { U j 6 7 S / / L B N N N J / [ / / S i i N ( / ( ....[ ! ( ( ( / P i ",
"e S H P L H H J H H ! J ( J K J 1 P %.$.' ^ ] [ N L $.} ( o.+./ N x / ( { { ] { @.O.( { +.~ ^ ( P i ( #.( / ( P J A { o...X.X.S ",
"< 6 8 j j h w t t 8 r y 8 3 6 : : d S S y d y t y q j 6 u C h w t t x 6 : 5 3 y y 3 4 u u j Z S H i C y < 6 8 6 6 t u x u x u ; ",
"4 3 8 8 4 8 y y d < % t B h 3 : j j J P I P H H J Z e w H G I C N C J S B e N S S L Z N B I P S C S u w 4 C C S H C u t N S C 0 ",
"E ( ......( { ....H e O...{ / { { ( o.{ [ { ( [ ( ( H L ` W W ] P ( #./ L U X. ./ ^ F h U ] ^ G m n m m F J ~ X.+.U N P { ~ F m ",
"! ! H J J ! J P ' B 8 [ U J J U U [ ( U K J K L P P N S / J Z D ! ( E ' } { ^ m l b c 6 J / J / I H J I L D F D P j 0 P J S A A ",
"t y u C S u u j S h 7 j 8 8 j y 8 y 5 w j D H Z Z Z 2 2 B B j S j Z u B B y t 8 e d 8 - q i j C e j Z B h y q u N u t j C Z C N ",
"t C P ! ! J S J / ! V J V H N h 7 7 7 8 e B C J H L q < N J [ J S U A D J J B N L M w 0 C P L N 6 N j h j u i N C j a A S A J S ",
"P #.! E R ^ W E v m A v R W W ^ S ( @.X...o.o. .] ] { K W ~ ^ ! N W m c c D ^ ~ ' X.[ W m ~ { } L ..] ^ ! ( ( ( / E v v F F J / ",
"- S D D F J A c c c F D v x A v 9 C o.{ ( [ ( x d j c m c D F z 4 c J L D F J J J I K n g D J J j D K F D P J J P J ( ( P J S Z ",
"% u D S C S S S S Z H D C S S i % 7 N u t h N i j S j h N e q 1 < C L H Z N F N h h w 3 7 3 9 6 3 N N i h u u u t w i y u u r 8 ",
"V ! Z x H D J / J h S P L P / C 3 i I P P / ( D N B H H M w M w M V h y j P P S H P H M j H I / P / P J S S A Z S C 8 N C A S Z ",
"......( ..( / ( I q j { ....( ( I J F l j j d 6 d p k ] F n ~ F J ] X.+.o.O.+.| ` | L { X.{ { { G J P +...{ X...X.H q X...o.o.{ ",
"/ / / P P P H S J 3 7 / / / / / K c c g d j f c k d > n g p l p a b ^ ] [ ' ) Y b b 8 H [ [ I I D A j / / S P J P h 4 ( L / U / ",
"i M t i u j C N j : y J A c u Z Z w B D H D D K J 6 # D J I H h 6 r y j M Z k h d w 1 8 h D D N C h 4 N N N i Z S w 1 B h j B h ",
"1 7 t t 8 i S S V w J J J S S C j Z Z N k V D B h e q N D L V h N V N j D D V j h B B V j S H J S B N S N u t u t q 7 i r 6 4 5 ",
"N ! / } ] +.{ / } { o.] { [ U { j _ | ' I J I J K o.J K { ^ E _ H H O...{ [ { [ [ O.{ [ } [ [ [ ( H G ~ ( ( S ( ( { F T R Y A ! ",
"i Z H L P / L H U / K K J K U P 3 D K I I L I P O.{ F m G E F n y M [ ' J L / U { ' U P K P L P P j H I P S u C u S F m A J J x ",
"e N S N H H B N H L B B Z Z B h & B L H B J H N D j h j B V V H w 8 k w r j h w j 8 h V J H S D N 5 y y u q N C C P N N S C j w ",
"k H F S c k B B H D w q B D B j e M Z j j j h V V 7 - $ o @ $ ; 3 w j 8 w y 7 2 - , 8 e V J N H N h S h u N C A P U N N U / J x ",
"s Y Y z Y m E ~ ^ ~ N H ..( X./ ~ ' ../ {  .] ] | / L V U P U I K [ O.H ' @.U [ / / [ B ' G n J W m n D K E / D / ( j / ( / ~ Y ",
"G F G D / / / J / / h B / U ( / G K / I / K K F K ' / H O.X.} { U U U I } { ' G m n D 5 B V D D S A D k Z D J S J H w P P P J ! ",
"S V S S S N D L S Z 4 i A S J S Z Z u j I H V H H V w w I K / I H V V D B d B D H L V - M L P N h e 5 - : q i h C S ; j Z A S S ",
"% w i q & % ; 4 N h h B J J A j k h y h r t f 8 ; * q w 0 6 8 5 ; ; 7 e h h h w w d 0 2 k H L D e 7 7 w i i w y h h 4 6 t y u 9 ",
"< ( ] } / J D c F ^ ` ] o.{ X.{ P I X.P U I { U H L ~ ~ { { I I P e ..{ _ ' ] { { o.} n b W ~ ' { S L $.O.{ ( [ ..{ { U ( { ( { ",
"w K W Q Q Y c k c m b b ! P P P y B ..[ [ ..[ I U ' E z W W m b m w } m n g n / I K K g g D Z K / i V o.{ U / / P ( ( / S k L [ ",
"0 L L J P Z j Z j w i C / / / Z < e J J ' H h S Z i j V B B Z l r 2 [ L H K D V H k B D N V B j j : 1 h j Z j H H B Z h > 3 S K ",
"4 j t 4 u i h u y u i C ! S S C 2 1 h D H B d d t h e 8 7 0 0 8 * 2 V y h e y k h k B h y d w 0 y w , + , h y 9 6 3 6 8 8 S S u ",
"J { ( J { { ..o.@.@.V { / m m E F D ' _ _ K G ' } ] K I X.[ [ U V I [ [ [ [ [ O.o.} { L [ X.} [ o.[ K / J K / I J h N o.o.@.( S ",
"( ..X.{ ( ( { ( [ ( w P R c Z l g g f p z n g n G m l h }  .o.{ U K K I { U I U I U P h U K I I I W n F n J U [ } P q ( / U P J ",
"N C J J C P J J J j 6 j H J K J k k D D g n V g c H h 4 F n L L V n n J J B B L B B 4 - V H D J D V V j B h j Z A j 7 J C y j x ",
"5 C x h t j y 5 2 4 y N Z Z j h d H L P Z k j j k N q 0 N d j j w y V B N N B B k V V V D j S S j d 7 h d 8 7 8 w t j 6 4 8 u 5 ",
"M ( ( ( ..X.{ U U ..{ ] { ..{ U M U ' U U [ U [ [ [ [ K J I / / J e [ W m W ~ _ {  .) ) _ ' [ [ [ I h [ X.X...I ( ....L S ..} / ",
"u E Y ( { o.o.{ X.{ / G H ( { ] j V I K K [ U U [ { _ m K { ' b s 3 J c n l l n _ G n n n n J I U P h L H J U I ( U / H J { ! v ",
"j H D N 9 k B B J H D d w j D d - y K J D J K H V k 5 h L K L L g , L I U L K J P P U V N H J J J Z 8 M S D S S H Z Z H S H H Z ",
"q 4 y i 3 : # - 8 e * # 8 j 1 ; 1 d h : ; 1 5 5 : # @ 5 8 j Z h 7 , M D B V D V e k j 7 e k y 1 w B e j B A x S j t h 8 4 5 w 8 "
};
